<svg xmlns="http://www.w3.org/2000/svg" width="18" height="18" viewBox="0 0 18 18">
    <g fill="#FAA62B" fill-rule="nonzero">
        <path d="M9 0C4.026 0 0 4.025 0 9c0 4.974 4.025 9 9 9 4.974 0 9-4.025 9-9 0-4.974-4.025-9-9-9zm0 16.594A7.59 7.59 0 0 1 1.406 9 7.59 7.59 0 0 1 9 1.406 7.59 7.59 0 0 1 16.594 9 7.59 7.59 0 0 1 9 16.594z"/>
        <path d="M3.595 8.297H2.562a.703.703 0 1 0 0 1.406h1.033a.703.703 0 1 0 0-1.406zM15.472 8.297H14.44a.703.703 0 1 0 0 1.406h1.033a.703.703 0 1 0 0-1.406zM12.58 2.8a.703.703 0 0 0-.961.258l-.517.895a.703.703 0 0 0 1.218.703l.516-.895a.703.703 0 0 0-.257-.96zM11.046 5.456a.703.703 0 0 0-.96.258l-.997 1.725A1.566 1.566 0 0 0 7.436 9c0 .862.702 1.564 1.564 1.564a1.566 1.566 0 0 0 1.307-2.421l.996-1.726a.703.703 0 0 0-.257-.96zM6.898 3.953l-.517-.895a.703.703 0 1 0-1.217.703l.516.895a.703.703 0 1 0 1.218-.703z"/>
    </g>
</svg>
