<svg xmlns="http://www.w3.org/2000/svg" width="40" height="40" viewBox="0 0 40 40">
    <g fill="#FFF" fill-rule="nonzero">
        <path d="M20 0C8.946 0 0 8.945 0 20c0 11.054 8.945 20 20 20 11.054 0 20-8.945 20-20C40 8.946 31.055 0 20 0zm0 36.875c-9.327 0-16.875-7.547-16.875-16.875 0-9.327 7.547-16.875 16.875-16.875 9.327 0 16.875 7.547 16.875 16.875 0 9.327-7.547 16.875-16.875 16.875z"/>
        <path d="M7.989 18.438H5.694a1.562 1.562 0 1 0 0 3.125h2.295a1.562 1.562 0 1 0 0-3.125zM34.383 18.438h-2.295a1.562 1.562 0 1 0 0 3.125h2.295a1.562 1.562 0 1 0 0-3.125zM27.954 6.224a1.563 1.563 0 0 0-2.135.572l-1.147 1.988a1.562 1.562 0 0 0 2.706 1.562l1.147-1.987a1.562 1.562 0 0 0-.571-2.135zM24.547 12.125a1.562 1.562 0 0 0-2.135.572L20.2 16.53A3.479 3.479 0 0 0 16.525 20 3.479 3.479 0 0 0 20 23.475 3.479 3.479 0 0 0 23.475 20c0-.703-.21-1.358-.57-1.905l2.214-3.836a1.562 1.562 0 0 0-.572-2.134zM15.328 8.784l-1.147-1.988a1.562 1.562 0 1 0-2.706 1.563l1.147 1.987a1.562 1.562 0 1 0 2.706-1.562z"/>
    </g>
</svg>
