<svg xmlns="http://www.w3.org/2000/svg" width="90" height="90" viewBox="0 0 90 90">
    <defs>
        <linearGradient id="a" x1="50%" x2="50%" y1="0%" y2="98.984%">
            <stop offset="0%" stop-color="#FCFA89"/>
            <stop offset="100%" stop-color="#FAA72B"/>
        </linearGradient>
    </defs>
    <path fill="url(#a)" fill-rule="nonzero" d="M44.998 0C20.148 0 0 20.147 0 44.998c0 24.852 20.147 45 44.998 45 24.852 0 45-20.148 45-45C89.999 20.148 69.85 0 44.999 0zm22.274 49.925c-5.094 5.66-20.115 17.886-20.753 18.403a2.246 2.246 0 0 1-1.52.522h-.051a2.324 2.324 0 0 1-1.47-.522c-.638-.517-15.657-12.743-20.75-18.402-5.583-6.207-5.547-15.134.085-20.766 5.748-5.749 15.103-5.749 20.852 0l1.334 1.335 1.336-1.336c5.748-5.748 15.102-5.747 20.852 0 5.63 5.633 5.667 14.56.085 20.766z"/>
</svg>
