<svg xmlns="http://www.w3.org/2000/svg" width="24" height="24" viewBox="0 0 24 24">
    <g fill="#FFF" fill-rule="nonzero">
        <path d="M11.916 14.302a2.39 2.39 0 0 0 2.387-2.386c0-.519-.17-.998-.452-1.39a2.383 2.383 0 0 0-1.934-.995c-.796 0-1.5.393-1.934.994-.283.392-.451.872-.452 1.391a2.387 2.387 0 0 0 2.385 2.386zM17.125 8.998V6.701h-.299l-1.998.007.007 2.298z"/>
        <path d="M11.916 0C5.346 0 0 5.346 0 11.916s5.346 11.917 11.916 11.917 11.917-5.346 11.917-11.917C23.833 5.346 18.488 0 11.916 0zm6.778 10.526v5.549a2.622 2.622 0 0 1-2.62 2.62H7.76a2.622 2.622 0 0 1-2.62-2.62V7.759a2.622 2.622 0 0 1 2.62-2.62h8.315a2.622 2.622 0 0 1 2.62 2.62v2.767z"/>
        <path d="M15.624 11.916a3.712 3.712 0 0 1-3.708 3.708 3.711 3.711 0 0 1-3.706-3.708c0-.491.098-.961.273-1.39H6.459v5.549c0 .717.583 1.298 1.3 1.298h8.314a1.3 1.3 0 0 0 1.3-1.298v-5.55h-2.025c.176.43.276.9.276 1.391z"/>
    </g>
</svg>
