<svg xmlns="http://www.w3.org/2000/svg" xmlns:xlink="http://www.w3.org/1999/xlink" width="138" height="30" viewBox="0 0 138 30">
    <defs>
        <path id="a" d="M.4.427H5.18v6.72H.4V.428z"/>
        <path id="c" d="M.083.427h4.781v6.72H.084V.428z"/>
    </defs>
    <g fill="none" fill-rule="evenodd">
        <g transform="translate(97.795 .109)">
            <mask id="b" fill="#fff">
                <use xlink:href="#a"/>
            </mask>
            <path fill="#FFF" d="M1.64 4.366a2.473 2.473 0 0 0 0 .523c.038.404.164.695.378.873.215.178.477.266.787.266.309 0 .569-.09.78-.27.212-.181.333-.44.365-.776a2.75 2.75 0 0 0 .019-.354 2.75 2.75 0 0 0-.02-.355c-.03-.324-.152-.58-.364-.766a1.14 1.14 0 0 0-.78-.28c-.31 0-.572.09-.787.267-.214.177-.34.468-.378.872m.88-2.259c.196 0 .372.019.526.056.155.037.29.084.407.14a1.596 1.596 0 0 1 .497.364V.68a.24.24 0 0 1 .076-.177c.05-.05.11-.075.18-.075h.72c.069 0 .128.025.179.075a.24.24 0 0 1 .076.177v6.124a.24.24 0 0 1-.076.177.245.245 0 0 1-.18.075h-.72a.244.244 0 0 1-.179-.075.24.24 0 0 1-.076-.177v-.215a1.568 1.568 0 0 1-.497.364 2.017 2.017 0 0 1-.407.14c-.154.037-.33.056-.526.056a1.977 1.977 0 0 1-1.51-.667 2.32 2.32 0 0 1-.425-.7 2.537 2.537 0 0 1-.176-.827 5.162 5.162 0 0 1 0-.653 2.54 2.54 0 0 1 .176-.826 2.32 2.32 0 0 1 .426-.7 1.97 1.97 0 0 1 1.51-.667" mask="url(#b)"/>
        </g>
        <path fill="#FFF" d="M105.883 3.336c-.184 0-.34.027-.469.08-.13.052-.238.121-.327.205a.913.913 0 0 0-.204.28c-.047.103-.076.2-.09.294h2.14a1.644 1.644 0 0 0-.07-.294.771.771 0 0 0-.171-.28.887.887 0 0 0-.312-.206 1.336 1.336 0 0 0-.497-.079m-2.32 1.4c0-.348.053-.676.161-.985.108-.308.262-.575.464-.802.202-.227.446-.406.733-.537.288-.13.608-.196.962-.196.353 0 .673.064.96.192.287.127.532.298.734.513.202.215.358.467.468.756.111.29.166.593.166.91v.42a.24.24 0 0 1-.075.177.246.246 0 0 1-.18.075h-3.162a.774.774 0 0 0 .33.654c.102.074.219.13.352.168.132.037.267.056.407.056.201 0 .366-.02.492-.061.126-.04.23-.092.312-.154a.893.893 0 0 1 .17-.102.468.468 0 0 1 .18-.029h.758c.069 0 .13.026.184.075.054.05.078.11.071.178-.006.087-.055.199-.146.336a1.599 1.599 0 0 1-.412.4c-.183.132-.409.243-.677.337-.268.093-.58.14-.932.14-.354 0-.674-.061-.962-.182a2.042 2.042 0 0 1-.733-.518 2.314 2.314 0 0 1-.464-.798 3.083 3.083 0 0 1-.161-1.022M111.45 5.773a.227.227 0 0 0-.067-.168.618.618 0 0 0-.232-.122 3.78 3.78 0 0 0-.44-.112 45.383 45.383 0 0 1-.7-.149 2.957 2.957 0 0 1-.692-.234 1.473 1.473 0 0 1-.44-.326 1.058 1.058 0 0 1-.232-.425 1.93 1.93 0 0 1-.066-.518c0-.187.044-.37.132-.55.089-.181.216-.341.384-.482.167-.14.37-.252.61-.34.24-.088.514-.131.824-.131.31 0 .585.035.828.103.243.068.45.159.62.27.17.113.303.242.398.388a.97.97 0 0 1 .161.443.204.204 0 0 1-.071.178.264.264 0 0 1-.185.075h-.729a.358.358 0 0 1-.212-.052 4.231 4.231 0 0 1-.157-.117.86.86 0 0 0-.227-.116 1.328 1.328 0 0 0-.426-.052c-.19 0-.357.029-.502.084-.145.056-.218.156-.218.3 0 .068.018.125.052.172a.448.448 0 0 0 .2.126c.097.037.233.076.406.116.174.041.4.089.677.145.562.118.958.303 1.188.556.23.252.346.565.346.938 0 .187-.047.368-.142.546a1.504 1.504 0 0 1-.412.476c-.18.14-.4.252-.663.336a2.906 2.906 0 0 1-.885.126c-.334 0-.63-.04-.885-.117a2.234 2.234 0 0 1-.648-.304 1.422 1.422 0 0 1-.408-.419.961.961 0 0 1-.15-.457.205.205 0 0 1 .07-.178.263.263 0 0 1 .185-.075h.729c.094 0 .165.022.213.066l.16.149c.06.056.144.106.251.15.107.043.269.065.483.065.095 0 .193-.006.294-.018.1-.013.194-.034.279-.061a.66.66 0 0 0 .213-.113.216.216 0 0 0 .085-.172M114.45 6.911a.24.24 0 0 1-.076.178.244.244 0 0 1-.18.075h-.72a.245.245 0 0 1-.18-.075.24.24 0 0 1-.075-.178v-4.35c0-.068.025-.127.076-.177.05-.05.11-.075.18-.075h.719c.07 0 .13.025.18.075.05.05.076.109.076.177v4.35zM114.24.536c.07 0 .13.025.18.074a.24.24 0 0 1 .076.178v.728a.24.24 0 0 1-.076.178.246.246 0 0 1-.18.073h-.814a.246.246 0 0 1-.18-.073.239.239 0 0 1-.076-.178V.788c0-.069.025-.128.076-.178.05-.049.11-.074.18-.074h.814zM116.296 4.475a2.474 2.474 0 0 0 0 .523c.038.404.164.695.378.873.215.177.477.266.786.266.31 0 .57-.09.781-.27.212-.181.333-.44.365-.776a2.75 2.75 0 0 0 .019-.354 2.75 2.75 0 0 0-.02-.355c-.03-.324-.152-.58-.364-.766a1.14 1.14 0 0 0-.78-.28c-.31 0-.572.09-.787.266-.214.178-.34.469-.378.873m1.136 3.622c.132 0 .268-.02.407-.061.139-.04.265-.104.379-.19a.972.972 0 0 0 .388-.803v-.346a1.568 1.568 0 0 1-.497.364 2.017 2.017 0 0 1-.407.14c-.155.037-.33.056-.526.056a1.977 1.977 0 0 1-1.51-.667 2.32 2.32 0 0 1-.426-.7 2.537 2.537 0 0 1-.175-.827 5.162 5.162 0 0 1 0-.653 2.54 2.54 0 0 1 .175-.826 2.32 2.32 0 0 1 .426-.7 1.97 1.97 0 0 1 1.51-.667c.195-.001.371.018.526.055.155.037.29.084.407.14a1.596 1.596 0 0 1 .497.364v-.214a.24.24 0 0 1 .076-.178c.05-.05.11-.075.18-.075h.719c.07 0 .13.025.18.075a.24.24 0 0 1 .076.178V6.94c0 .753-.214 1.32-.64 1.703-.426.383-1.014.575-1.765.575-.322 0-.62-.043-.895-.127a2.557 2.557 0 0 1-.715-.336 1.823 1.823 0 0 1-.483-.476 1.097 1.097 0 0 1-.198-.546.205.205 0 0 1 .07-.178.264.264 0 0 1 .185-.074h.644c.088 0 .164.03.227.088.063.06.117.114.161.164a.928.928 0 0 0 .336.261c.142.069.365.103.668.103M125.29 6.911a.24.24 0 0 1-.076.178.244.244 0 0 1-.18.075h-.72a.245.245 0 0 1-.18-.075.24.24 0 0 1-.075-.178v-2.37c0-.374-.089-.673-.265-.897-.177-.224-.448-.336-.814-.336-.335 0-.599.112-.79.336-.194.224-.29.523-.29.896v2.371a.24.24 0 0 1-.075.178.245.245 0 0 1-.18.075h-.72a.245.245 0 0 1-.18-.075.24.24 0 0 1-.075-.178v-4.35c0-.068.025-.127.076-.177.05-.05.11-.075.18-.075h.719c.07 0 .13.025.18.075.05.05.076.109.076.177v.215c.163-.162.356-.295.577-.402.22-.105.483-.158.786-.158.384 0 .706.06.965.177.259.119.468.277.625.476.158.2.27.432.336.696.066.264.1.543.1.836v2.51z"/>
        <g transform="translate(127.677 .109)">
            <mask id="d" fill="#fff">
                <use xlink:href="#c"/>
            </mask>
            <path fill="#FFF" d="M3.625 4.366c-.038-.404-.165-.695-.38-.872a1.194 1.194 0 0 0-.785-.267c-.31 0-.57.094-.781.28-.212.187-.333.442-.365.766a2.75 2.75 0 0 0-.019.355c0 .143.007.261.02.354.031.336.152.595.364.775.211.181.472.271.78.271.31 0 .572-.088.787-.266.214-.178.34-.468.379-.873a2.473 2.473 0 0 0 0-.523m-.881-2.259a1.97 1.97 0 0 1 1.51.668c.18.202.322.436.426.7.104.264.162.54.175.826a5.187 5.187 0 0 1 0 .653 2.55 2.55 0 0 1-.175.826 2.32 2.32 0 0 1-.426.7 1.977 1.977 0 0 1-1.51.667c-.196 0-.371-.018-.525-.055a2.017 2.017 0 0 1-.407-.14 1.655 1.655 0 0 1-.497-.364v.215a.24.24 0 0 1-.077.177.244.244 0 0 1-.18.075H.34a.245.245 0 0 1-.18-.075.24.24 0 0 1-.076-.177V.679A.24.24 0 0 1 .16.502C.21.452.27.427.34.427h.72c.07 0 .13.025.18.075a.24.24 0 0 1 .075.177v1.988c.051-.055.117-.116.2-.182.081-.065.18-.126.298-.182.116-.056.252-.103.407-.14.154-.037.33-.056.525-.056" mask="url(#d)"/>
        </g>
        <path fill="#FFF" d="M134.435 6.902l-1.874-4.275a.242.242 0 0 1 .066-.243c.05-.05.11-.075.18-.075h.71c.076 0 .142.026.199.075.056.05.095.1.114.15l1.259 2.884 1.26-2.884a.4.4 0 0 1 .112-.15.296.296 0 0 1 .2-.075h.71c.069 0 .13.026.18.075a.242.242 0 0 1 .065.243l-2.66 6.086a.4.4 0 0 1-.113.15.292.292 0 0 1-.2.074h-.71a.247.247 0 0 1-.179-.074.24.24 0 0 1-.066-.243l.747-1.718z"/>
        <path fill="#020303" d="M23.167 5.228H1.523C.682 5.228 0 5.901 0 6.73v21.342c0 .829.682 1.5 1.523 1.5h21.644c.841 0 1.523-.671 1.523-1.5V6.73c0-.83-.682-1.502-1.523-1.502"/>
        <path fill="#FFF" d="M31.681 21.223h3.28c.398 0 .716-.114.954-.343.239-.228.358-.513.358-.852 0-.34-.12-.624-.358-.853-.238-.229-.556-.343-.954-.343h-3.28v2.391zm4.294-6.527c0-.34-.103-.61-.308-.813-.206-.203-.507-.304-.905-.304h-3.08v2.234h3.08c.398 0 .7-.1.905-.304.205-.202.308-.473.308-.813zm-7.434 9.565a.52.52 0 0 1-.379-.157.506.506 0 0 1-.158-.372V11.07c0-.144.053-.268.158-.372a.522.522 0 0 1 .379-.157h6.4c.888 0 1.637.12 2.247.362.609.242 1.096.556 1.46.941.365.385.627.823.786 1.313.159.49.238.978.238 1.46 0 .38-.043.71-.128.991a3.38 3.38 0 0 1-.31.724 2.368 2.368 0 0 1-.366.49 4.95 4.95 0 0 1-.309.285c.517.353.877.76 1.083 1.225.206.464.308 1.023.308 1.675 0 .537-.079 1.059-.238 1.568-.16.51-.42.965-.785 1.363-.365.399-.838.719-1.42.96-.585.242-1.3.363-2.148.363h-6.818zM45.834 16.48h2.246c.557 0 1.017-.104 1.382-.314.365-.209.547-.588.547-1.137 0-.548-.182-.928-.547-1.137-.365-.208-.825-.313-1.382-.313h-2.246v2.9zm2.246-5.94c.875 0 1.657.092 2.346.275.69.184 1.276.458 1.76.824.483.365.854.833 1.112 1.401.259.569.388 1.232.388 1.99 0 .98-.206 1.793-.616 2.44-.41.646-.994 1.14-1.75 1.48l2.466 4.664c.04.079.059.151.059.216 0 .117-.043.22-.129.304a.425.425 0 0 1-.308.127h-2.703c-.266 0-.455-.059-.567-.177a1.756 1.756 0 0 1-.268-.353l-2.207-4.194h-1.829v4.194a.504.504 0 0 1-.159.373.516.516 0 0 1-.377.157h-2.604a.517.517 0 0 1-.379-.157.503.503 0 0 1-.158-.373V11.07c0-.144.052-.268.158-.372a.524.524 0 0 1 .379-.157h5.386zM60.008 19.106h3.22l-1.61-4.703-1.61 4.703zm3.22-8.565c.264 0 .467.072.606.216.14.144.235.287.288.43l4.334 12.35c.052.13.079.228.079.293 0 .118-.043.22-.129.304a.425.425 0 0 1-.308.127h-2.505c-.265 0-.454-.055-.566-.166a.725.725 0 0 1-.209-.324l-.556-1.627h-5.288l-.557 1.627a.731.731 0 0 1-.209.324c-.112.111-.3.166-.566.166h-2.505a.423.423 0 0 1-.308-.127.411.411 0 0 1-.129-.304c0-.065.026-.163.08-.294l4.333-12.349a1.25 1.25 0 0 1 .288-.43c.14-.144.341-.216.607-.216h3.22zM79.19 24.26c-.226 0-.408-.057-.547-.175a1.374 1.374 0 0 1-.269-.275l-4.551-6.703v6.625a.507.507 0 0 1-.16.372.518.518 0 0 1-.377.157h-2.604a.517.517 0 0 1-.378-.157.502.502 0 0 1-.158-.372V11.07c0-.144.052-.268.158-.372a.52.52 0 0 1 .378-.157h2.068c.225 0 .407.059.546.177.139.117.228.208.269.273l4.55 6.704V11.07c0-.144.054-.268.16-.372a.521.521 0 0 1 .378-.157h2.604a.52.52 0 0 1 .377.157c.106.104.16.228.16.372v12.662a.505.505 0 0 1-.16.372.518.518 0 0 1-.377.157H79.19zM92.985 15.931c-.08-1.503-.98-2.254-2.704-2.254h-2.027v7.448h2.127c1.67 0 2.538-.751 2.604-2.254.013-.274.02-.532.02-.774V16.696c0-.236-.007-.49-.02-.765zm-2.604-5.39c.915 0 1.75.134 2.504.402a5.922 5.922 0 0 1 1.958 1.127c.55.483.982 1.061 1.293 1.734a5.9 5.9 0 0 1 .526 2.205c.014.275.02.527.02.755v1.303c0 .222-.006.465-.02.726a5.973 5.973 0 0 1-.517 2.214 5.203 5.203 0 0 1-1.262 1.725 5.727 5.727 0 0 1-1.918 1.127c-.742.268-1.57.402-2.484.402h-5.368a.52.52 0 0 1-.378-.157.504.504 0 0 1-.158-.372V11.07c0-.144.052-.268.158-.373a.523.523 0 0 1 .378-.157h5.268z"/>
        <path fill="#E10F17" d="M108.689 21.125c.145 0 .271.053.377.157.107.105.16.229.16.372v2.077a.504.504 0 0 1-.16.373.518.518 0 0 1-.377.157h-9.203a.52.52 0 0 1-.379-.157.505.505 0 0 1-.159-.373V11.07c0-.144.053-.268.159-.373a.524.524 0 0 1 .379-.156h2.603c.146 0 .272.053.378.156.106.105.159.23.159.373v10.055h6.063zM115.07 19.106h3.22l-1.61-4.703-1.61 4.703zm3.22-8.565c.265 0 .467.072.606.216.139.144.236.287.288.43l4.334 12.35c.053.13.08.228.08.293 0 .118-.044.22-.13.304a.424.424 0 0 1-.308.127h-2.505c-.265 0-.454-.055-.567-.166a.73.73 0 0 1-.208-.324l-.557-1.627h-5.287l-.557 1.627a.731.731 0 0 1-.209.324c-.112.111-.3.166-.566.166h-2.505a.422.422 0 0 1-.307-.127.411.411 0 0 1-.13-.304c0-.065.026-.163.08-.294l4.333-12.349a1.25 1.25 0 0 1 .288-.43c.14-.144.341-.216.606-.216h3.221zM128.885 21.223h3.28c.397 0 .715-.114.954-.343.238-.228.358-.513.358-.852 0-.34-.12-.624-.358-.853-.239-.229-.557-.343-.955-.343h-3.28v2.391zm4.293-6.527c0-.34-.102-.61-.308-.813-.205-.203-.507-.304-.904-.304h-3.081v2.234h3.081c.397 0 .699-.1.904-.304.206-.202.308-.473.308-.813zm-7.434 9.565a.518.518 0 0 1-.378-.157.505.505 0 0 1-.16-.372V11.07c0-.144.054-.268.16-.372a.52.52 0 0 1 .378-.157h6.4c.888 0 1.637.12 2.247.362.609.242 1.096.556 1.46.941.365.385.627.823.786 1.313.16.49.238.978.238 1.46 0 .38-.042.71-.128.991a3.38 3.38 0 0 1-.309.724 2.368 2.368 0 0 1-.367.49c-.126.125-.229.22-.308.285.516.353.877.76 1.083 1.225.205.464.308 1.023.308 1.675 0 .537-.08 1.059-.239 1.568-.159.51-.42.965-.785 1.363-.365.399-.838.719-1.42.96-.585.242-1.3.363-2.148.363h-6.818z"/>
        <path fill="#FEFEFE" d="M7.66 9.003v3.778h9.37v2.73H9.495v3.779h7.533v6.509h3.164c.37 0 .669-.295.669-.66v-6.433h-3.183v-2.61h3.183V9.66c0-.363-.3-.658-.669-.658H7.66z"/>
        <path fill="#E10F17" d="M7.66 22.02V9.003H4.496a.664.664 0 0 0-.668.659V25.14c0 .363.3.659.668.659H17.03V22.02H7.66z"/>
    </g>
</svg>
