<svg xmlns="http://www.w3.org/2000/svg" width="15" height="18" viewBox="0 0 15 18">
    <g fill="#FAA62B" fill-rule="nonzero">
        <path d="M7.031 0C3.154 0 0 3.095 0 6.9c0 3.011 1.368 5.74 3.337 8.003 1.627 1.87 3.24 2.937 3.309 2.982a.703.703 0 0 0 .77 0c.069-.045 1.683-1.112 3.31-2.982 1.968-2.262 3.336-4.992 3.336-8.003 0-3.805-3.154-6.9-7.03-6.9zm0 16.433C5.704 15.437 1.406 11.83 1.406 6.9c0-3.03 2.524-5.494 5.625-5.494 3.102 0 5.625 2.465 5.625 5.494 0 3.787-2.612 7.276-5.625 9.533z"/>
        <path d="M7.031 3.384A3.52 3.52 0 0 0 3.516 6.9a3.52 3.52 0 0 0 3.515 3.516A3.52 3.52 0 0 0 10.547 6.9 3.52 3.52 0 0 0 7.03 3.384zm0 5.625A2.112 2.112 0 0 1 4.921 6.9c0-1.163.947-2.11 2.11-2.11 1.163 0 2.11.947 2.11 2.11 0 1.163-.947 2.11-2.11 2.11z"/>
    </g>
</svg>
