<svg xmlns="http://www.w3.org/2000/svg" width="52" height="52" viewBox="0 0 52 52">
    <defs>
        <linearGradient id="a" x1="50%" x2="50%" y1="0%" y2="98.984%">
            <stop offset="0%" stop-color="#FCFA89"/>
            <stop offset="100%" stop-color="#FAA72B"/>
        </linearGradient>
    </defs>
    <g fill="url(#a)" fill-rule="nonzero">
        <circle cx="26.076" cy="19.166" r="4.186"/>
        <path d="M26 0C11.64 0 0 11.64 0 26c0 14.358 11.64 26 26 26 14.358 0 26-11.642 26-26C52 11.64 40.357 0 26 0zm-.055 11.904c.019 0 .037 0 .055-.002l.054.002c4.381.07 7.945 3.69 7.945 8.072 0 5.357-5.724 10.782-8 12.726-.151-.13-.32-.277-.5-.437l-.008-.008C22.973 30.02 18 24.97 18 19.976c0-4.382 3.564-8.002 7.944-8.072zm.168 28.353c-4.795 0-9.65-1.376-9.65-4.004 0-1.844 2.39-3.07 5.472-3.64.596.6 1.16 1.128 1.656 1.57-3.357.374-5.33 1.437-5.33 2.07 0 .777 2.981 2.205 7.852 2.205 4.87 0 7.851-1.428 7.851-2.206 0-.645-2.055-1.734-5.534-2.089.5-.446 1.068-.979 1.669-1.584 3.174.552 5.663 1.791 5.663 3.674 0 2.628-4.854 4.004-9.65 4.004z"/>
    </g>
</svg>
