<svg xmlns="http://www.w3.org/2000/svg" width="18" height="18" viewBox="0 0 18 18">
    <path fill="#FAA62B" fill-rule="nonzero" d="M17.21 12.118l-1.951-1.394a1.88 1.88 0 0 0-2.43.2l-1.144 1.144C10.219 11.03 6.97 7.782 5.93 6.315l1.144-1.144a1.88 1.88 0 0 0 .201-2.43L5.882.79A1.886 1.886 0 0 0 3.014.552L1.213 2.353c-1.618 1.618-1.617 3.809.004 6.01 2.57 3.489 4.931 5.85 8.42 8.42 2.036 1.5 4.274 1.74 6.01.004l1.8-1.8a1.886 1.886 0 0 0-.237-2.87zm-.756 1.874l-1.801 1.8c-1.25 1.25-2.764.903-4.181-.14-3.367-2.48-5.644-4.758-8.123-8.124-1.043-1.416-1.391-2.931-.142-4.18l1.801-1.801a.48.48 0 0 1 .73.06l1.394 1.952a.478.478 0 0 1-.051.618L4.559 5.7a.703.703 0 0 0-.166.732c.485 1.367 5.81 6.691 7.176 7.175.255.091.54.027.732-.165l1.522-1.522a.479.479 0 0 1 .618-.051l1.952 1.394a.48.48 0 0 1 .06.73z"/>
</svg>
