<svg xmlns="http://www.w3.org/2000/svg" width="25" height="25" viewBox="0 0 25 25">
    <path fill="#FFF" fill-rule="evenodd" d="M12.5 0C5.874 0 .5 5.394.5 12.05c0 6.655 5.373 12.05 12 12.05 6.628 0 12-5.395 12-12.05C24.5 5.395 19.128 0 12.5 0zm6.087 13.353c.56.549 1.151 1.065 1.653 1.67.222.268.432.545.593.857.227.443.021.93-.374.957L18 16.836c-.634.053-1.14-.204-1.566-.64-.34-.347-.656-.718-.983-1.078a2.351 2.351 0 0 0-.442-.395c-.336-.219-.627-.152-.82.2-.195.357-.239.753-.258 1.152-.026.581-.202.734-.783.76-1.243.06-2.423-.13-3.519-.759-.966-.555-1.715-1.339-2.367-2.226-1.27-1.727-2.242-3.626-3.116-5.577-.197-.44-.053-.676.43-.684a66.691 66.691 0 0 1 2.407-.001c.327.005.542.192.668.502a15.009 15.009 0 0 0 1.632 3.036c.177.252.358.503.616.68.286.196.503.131.637-.188.085-.202.122-.42.141-.637.064-.745.072-1.489-.04-2.231-.068-.464-.328-.764-.788-.852-.235-.044-.2-.132-.086-.267.197-.232.383-.377.754-.377h2.778c.438.087.535.284.595.726l.003 3.1c-.005.171.085.679.392.792.245.08.407-.116.555-.273.665-.709 1.14-1.547 1.564-2.415.188-.381.35-.778.507-1.174.117-.293.299-.438.629-.432l2.674.003c.08 0 .16 0 .236.014.451.077.575.272.436.714-.22.693-.647 1.271-1.064 1.851-.446.62-.923 1.219-1.365 1.842-.407.57-.374.856.13 1.351z"/>
</svg>
