<svg xmlns="http://www.w3.org/2000/svg" width="24" height="24" viewBox="0 0 24 24">
    <g fill="#FFF" fill-rule="evenodd">
        <path d="M6.21 12.988h.937v5.094h.887v-5.094h.954v-.834H6.209zM13.707 13.61c-.293 0-.567.161-.825.48v-1.936h-.797v5.928h.797v-.428c.267.33.541.488.825.488.316 0 .53-.168.636-.496.053-.188.08-.482.08-.89v-1.758c0-.419-.027-.71-.08-.888-.106-.331-.32-.5-.636-.5zm-.08 3.209c0 .398-.117.595-.347.595-.13 0-.264-.063-.398-.197v-2.691c.134-.132.267-.195.398-.195.23 0 .346.204.346.603v1.885zM10.599 17.04c-.178.251-.344.374-.505.374-.106 0-.166-.063-.186-.187-.007-.026-.007-.123-.007-.31v-3.252h-.798v3.492c0 .312.028.523.071.657.08.223.258.328.514.328.293 0 .594-.177.91-.543v.483h.799v-4.417h-.798v3.375zM11.283 9.584c.26 0 .384-.206.384-.62V7.087c0-.412-.125-.619-.384-.619-.26 0-.384.207-.384.62v1.876c0 .414.125.62.384.62z"/>
        <path d="M11.82.243C5.293.243 0 5.556 0 12.113 0 18.668 5.292 23.98 11.82 23.98c6.529 0 11.82-5.313 11.82-11.868 0-6.557-5.291-11.87-11.82-11.87zm1.315 5.552h.803V9.08c0 .19 0 .289.01.315.017.126.08.19.189.19.161 0 .33-.126.508-.379V5.795h.806v4.463h-.806v-.487c-.32.37-.625.549-.92.549-.26 0-.438-.107-.519-.332-.044-.136-.071-.349-.071-.664v-3.53zM10.093 7.25c0-.477.08-.826.252-1.052.223-.305.537-.458.938-.458.403 0 .717.153.94.458.168.225.25.575.25 1.052v1.562c0 .475-.082.827-.25 1.05-.223.305-.537.458-.94.458-.401 0-.715-.153-.938-.458-.172-.223-.252-.575-.252-1.05V7.25zM7.94 4.269l.634 2.351.61-2.351h.903L9.012 7.832v2.426h-.894V7.832c-.08-.43-.26-1.059-.546-1.895-.188-.556-.384-1.113-.573-1.668h.94zM18.183 18.47a1.67 1.67 0 0 1-1.425 1.302c-1.636.183-3.29.184-4.938.183-1.648 0-3.303 0-4.939-.183a1.67 1.67 0 0 1-1.425-1.302c-.23-1.002-.23-2.098-.23-3.13s.003-2.127.233-3.13a1.668 1.668 0 0 1 1.425-1.302c1.635-.183 3.29-.184 4.938-.183 1.649 0 3.303 0 4.938.183a1.671 1.671 0 0 1 1.427 1.302c.229 1.003.227 2.098.227 3.13s0 2.128-.23 3.13z"/>
        <path d="M16.244 13.61c-.407 0-.723.15-.954.453-.169.224-.245.57-.245 1.041v1.548c0 .468.086.817.255 1.038.23.302.548.452.964.452.417 0 .743-.157.964-.479a1.14 1.14 0 0 0 .186-.479c.008-.08.017-.257.017-.516v-.116h-.812c0 .32-.01.498-.018.542-.046.214-.16.32-.357.32-.272 0-.407-.203-.407-.611v-.784h1.594v-.915c0-.472-.08-.817-.247-1.04-.222-.303-.54-.454-.94-.454zm.391 1.742h-.797v-.408c0-.409.134-.613.4-.613.264 0 .397.204.397.613v.408z"/>
    </g>
</svg>
